<svg width="68" height="107" fill="none" xmlns="http://www.w3.org/2000/svg"><path d="M64.936 24.096L49.688 3.742c-1.626-2.168-5.023-3.308-7.555-2.534l-28.31 8.657c-2.53.778-4.358 3.645-4.057 6.379l.637 5.767c4.09.202 6.713 1.864 6.713 1.864l-6.253 2.323.002.005-6.721 2.504c-2.479.928-4.28 3.925-3.99 6.661l2.136 20.23c.292 2.738 2.494 5.897 4.905 7.022l16.79 7.846c2.409 1.125 3.183.172 1.722-2.119L17.38 55.304c-1.465-2.293-1.59-6.122-.282-8.51l3.375-6.168c.264-.486.519-1.051.754-1.661-2.927-.068-5.126-1.638-5.126-1.638l8.768-4.975 5.669-3.237c2.317-1.32 6.186-1.494 8.6-.388L52.5 34.85c2.414 1.109 2.786 3.523.833 5.363l-7.264 6.836c-1.959 1.846-1.424 3.032 1.186 2.64l13.71-2.067c2.616-.395 5.007-2.95 5.323-5.685l1.03-8.932c.308-2.728-.758-6.739-2.382-8.91zm-6.872 29.033l-13.32 1.805c-2.612.356-3.842 2.687-2.717 5.177l3.164 7.038c1.12 2.49 3.432 2.81 5.136.712l9.394-11.563c1.705-2.097.958-3.523-1.656-3.169zm-17.03 15.726c1.1 2.501.124 4.468-2.165 4.377-2.29-.093-5.29-2.088-6.667-4.436l-8.55-14.566c-1.383-2.347-1.268-6.112.25-8.364l6.178-9.172c1.517-2.25 4.77-3.283 7.234-2.295l6.344 2.542c2.461.988 2.877 3.305.92 5.15l-7.267 6.859c-1.96 1.847-2.657 5.405-1.557 7.903l5.28 12.002zm-20.081 35.281c0-2.039 3.918-3.821 3.918-6.728 0-1.386-.946-2.793-2.91-2.793-1.714 0-2.86 1.13-2.917 2.98l1.756.4.007-.3c.03-.855.509-1.326 1.168-1.326.725 0 1.054.535 1.054 1.12 0 2.053-4.01 3.599-4.01 7.166v1.2h5.914v-1.72h-3.98v.001zm17.102-5.005l1.902-3.094.07-1.23h-5.523l.309 1.689h2.896l-1.682 2.778v1.247h1.021c.833 0 1.304.332 1.304 1.467v.616c0 1.121-.298 1.624-1.131 1.624-.701 0-1.096-.403-1.164-1.365l-.006-.287-1.821.389.288-.063-.288.063c0 1.897 1.166 3.08 3.007 3.08 2.06 0 2.974-1.184 2.974-3.409v-.712c0-1.421-.771-2.669-2.156-2.793zm8.295 3.678v-4.894c0-.994-.438-1.515-1.256-1.515-.804 0-1.244.52-1.244 1.515v4.894c0 .961.44 1.483 1.244 1.483.818 0 1.256-.521 1.256-1.483zm-4.292-.016V97.9c0-2.021 1.147-3.251 3.036-3.251 1.916 0 3.066 1.228 3.066 3.25v4.894c0 2.004-1.15 3.22-3.066 3.22-1.89 0-3.036-1.217-3.036-3.22zm-11.195.016v-4.894c0-.994-.442-1.515-1.257-1.515-.803 0-1.245.52-1.245 1.515v4.894c0 .961.44 1.483 1.245 1.483.815 0 1.257-.521 1.257-1.483zm-4.294-.016V97.9c0-2.021 1.147-3.251 3.037-3.251 1.916 0 3.064 1.228 3.064 3.25v4.894c0 2.004-1.148 3.22-3.064 3.22-1.89 0-3.037-1.217-3.037-3.22zm29.7-10.242l-1.56-3.835-1.57 3.835h-2.125l2.61-5.712-2.451-5.336h2.105l1.43 3.503 1.416-3.503h2.124l-2.469 5.336 2.61 5.712h-2.12zm-6.972-1.83l.325 1.83H43.74V81.503h5.726l-.326 1.83h-3.465v2.73h3.303v1.77h-3.303v2.889h3.622zm-7.332-7.371h-2.22v9.2h-1.98v-9.2h-2.218v-1.847h6.417v1.847zM32.152 89v-3.946c0-1.199-.487-1.862-1.464-1.862-.974 0-1.478.663-1.478 1.862V89c0 1.2.504 1.865 1.478 1.865.977 0 1.464-.665 1.464-1.865zm-4.94 0v-3.946c0-2.337 1.29-3.74 3.477-3.74 2.17 0 3.46 1.403 3.46 3.74V89c0 2.335-1.29 3.74-3.46 3.74-2.186 0-3.477-1.403-3.477-3.74zm-9.488-7.497h1.887v3.614c0 .915-.095 2.588-.238 3.79l.05.03c.236-.617.503-1.376.802-2.038l2.343-5.396h1.934v11.048h-1.887v-3.44c0-1.042.079-2.844.206-4.01l-.05-.047c-.282.757-.58 1.642-.911 2.399l-2.216 5.098h-1.919V81.503zm-5.917 9.2c.944 0 1.526-.472 1.526-1.546 0-1.057-.582-1.563-1.526-1.563h-1.084v3.11h1.084zm-3.019-9.2h5.93l-.325 1.815h-3.669v2.462h1.227c2.234 0 3.382 1.373 3.382 3.379 0 2.288-1.148 3.393-3.382 3.393H8.79V81.503h-.002z" fill="#fff"/></svg>