<svg width="162" height="81" fill="none" xmlns="http://www.w3.org/2000/svg"><path d="M45.707 74.631c1.185 2.683.137 4.796-2.328 4.697-2.465-.1-5.697-2.24-7.18-4.76L26.993 58.94c-1.49-2.518-1.365-6.557.27-8.97l6.652-9.842c1.63-2.415 5.136-3.523 7.788-2.463l6.829 2.728c2.65 1.06 3.099 3.547.992 5.527L41.7 53.28c-2.108 1.981-2.862 5.799-1.677 8.48l5.685 12.872z" fill="#0795B6"/><path d="M49.703 59.7c-2.815.381-4.135 2.88-2.927 5.552l3.408 7.55c1.206 2.672 3.695 3.016 5.53.764l10.114-12.403c1.834-2.253 1.033-3.78-1.784-3.4L49.704 59.7z" fill="#7F9C40"/><path d="M71.444 26.616L55.026 4.779c-1.75-2.325-5.41-3.549-8.136-2.72l-30.48 9.288c-2.722.832-4.688 3.911-4.363 6.843l1.179 10.685 7.812-2.903c2.672-.994 4.899.606 4.944 3.56l.07 4.786a16.99 16.99 0 01-.188 2.544l8.544-4.86c2.494-1.416 6.66-1.603 9.26-.417l14.382 6.569c2.603 1.19 3.002 3.78.898 5.756l-7.818 7.332c-2.112 1.98-1.535 3.253 1.276 2.831l14.759-2.216c2.817-.424 5.392-3.164 5.731-6.098l1.11-9.584c.335-2.93-.814-7.232-2.562-9.56z" fill="#B2B93D"/><path d="M14.208 37.823l-.982-8.948-7.233 2.687c-2.671.994-4.607 4.21-4.298 7.145l2.3 21.705c.314 2.935 2.686 6.324 5.28 7.532l18.078 8.418c2.594 1.207 3.426.185 1.853-2.274L20.24 60.096c-1.576-2.459-1.71-6.567-.304-9.13l3.634-6.617c1.045-1.902 1.924-4.874 2.293-7.487l-6.535 3.714c-2.494 1.417-4.796.179-5.12-2.753z" fill="#782472"/><path d="M25.982 29.531c-.045-2.953-2.272-4.552-4.944-3.559l-7.812 2.903.982 8.948c.325 2.932 2.627 4.17 5.121 2.753l6.535-3.714a17 17 0 00.188-2.544l-.07-4.787z" fill="#55294F"/><path d="M86.497 29.37h8.856l-.488 2.701h-5.478v3.664h1.831c3.337 0 5.05 2.043 5.05 5.026 0 3.407-1.713 5.05-5.05 5.05h-4.721V29.37zm4.51 13.693c1.41 0 2.278-.705 2.278-2.302 0-1.573-.87-2.325-2.278-2.325h-1.62v4.627h1.62zm8.836-13.693h2.818v5.378c0 1.363-.14 3.853-.351 5.638l.069.047c.352-.917.752-2.044 1.198-3.03l3.5-8.034h2.888v16.443h-2.817v-5.12c0-1.552.117-4.229.305-5.967l-.072-.07c-.422 1.127-.868 2.442-1.361 3.57l-3.312 7.587h-2.865V29.369zm14.17 11.157v-5.873c0-3.476 1.927-5.566 5.192-5.566 3.241 0 5.166 2.09 5.166 5.566v5.873c0 3.476-1.925 5.566-5.166 5.566-3.265 0-5.192-2.09-5.192-5.566zm7.376 0v-5.873c0-1.784-.727-2.77-2.184-2.77-1.456 0-2.208.986-2.208 2.77v5.873c0 1.784.752 2.771 2.208 2.771 1.457 0 2.184-.987 2.184-2.77zm14.656-8.409h-3.311v13.694h-2.96V32.117h-3.312v-2.749h9.583v2.749zm10.949 10.969l.487 2.724h-8.784V29.37h8.549l-.486 2.725h-5.175v4.064h4.933v2.63h-4.933v4.299h5.409zm10.41 2.725l-2.325-5.71-2.348 5.71h-3.171l3.898-8.503-3.662-7.94h3.145l2.138 5.215 2.115-5.215h3.169l-3.686 7.94 3.898 8.503h-3.171z" fill="#fff"/><path d="M97.681 61.052V53.77c0-3.006 1.715-4.838 4.533-4.838 2.865 0 4.581 1.832 4.581 4.838v7.282c0 2.983-1.716 4.792-4.581 4.792-2.818 0-4.533-1.809-4.533-4.792zm6.412.024v-7.282c0-1.48-.658-2.254-1.879-2.254-1.197 0-1.855.775-1.855 2.254v7.282c0 1.433.658 2.209 1.855 2.209 1.221 0 1.879-.776 1.879-2.21zm16.717-.024V53.77c0-3.006 1.716-4.838 4.536-4.838 2.864 0 4.579 1.832 4.579 4.838v7.282c0 2.983-1.715 4.792-4.579 4.792-2.82 0-4.536-1.809-4.536-4.792zm6.414.024v-7.282c0-1.48-.658-2.254-1.878-2.254-1.199 0-1.857.775-1.857 2.254v7.282c0 1.433.658 2.209 1.857 2.209 1.22 0 1.878-.776 1.878-2.21zm-12.39-5.473l2.843-4.605.103-1.83h-8.248l.462 2.513h4.324l-2.512 4.133v1.857h1.525c1.246 0 1.949.494 1.949 2.183v.916c0 1.669-.447 2.42-1.69 2.42-1.048 0-1.637-.602-1.739-2.033l-.01-.425-2.718.575.429-.091-.429.09c0 2.826 1.742 4.586 4.49 4.586 3.077 0 4.439-1.762 4.439-5.073v-1.057c0-2.116-1.149-3.972-3.218-4.159zM89.295 63.05c0-3.031 5.847-5.685 5.847-10.008 0-2.065-1.41-4.157-4.345-4.157-2.56 0-4.272 1.682-4.357 4.434l2.624.596.01-.45c.046-1.268.76-1.972 1.746-1.972 1.082 0 1.574.798 1.574 1.668 0 3.054-5.989 5.355-5.989 10.663v1.786h8.831v-2.56h-5.942z" fill="#7F9C40"/></svg>