<svg width="60" height="58" fill="none" xmlns="http://www.w3.org/2000/svg"><path d="M46.565 40.975L58.63 28.911a4.692 4.692 0 000-6.628 4.657 4.657 0 00-2.26-1.25 4.671 4.671 0 00.434-1.976 4.656 4.656 0 00-1.373-3.314 4.65 4.65 0 00-2.516-1.304 4.69 4.69 0 00-1.135-4.782 4.66 4.66 0 00-2.515-1.3c.154-.47.236-.964.236-1.472a4.656 4.656 0 00-1.373-3.314 4.656 4.656 0 00-3.314-1.373 4.66 4.66 0 00-2.238.568l-.12-.13A8.3 8.3 0 0036.4 0h-9.766c-.687 0-1.244.557-1.244 1.244v1.63c0 .653.11 1.289.322 1.886a4.68 4.68 0 00-1.799-.356A4.656 4.656 0 0020.6 5.776a4.69 4.69 0 00-1.134 4.785 4.66 4.66 0 00-2.517 1.301 4.656 4.656 0 00-1.373 3.314c0 .507.081 1.001.235 1.469-.947.162-1.82.61-2.514 1.303a4.695 4.695 0 00-.937 5.287c-.85.194-1.63.622-2.261 1.253a4.692 4.692 0 000 6.628l2.48 2.48L.365 45.812a1.244 1.244 0 001.759 1.76l12.332-12.333a4.66 4.66 0 002.317.611 4.656 4.656 0 003.313-1.372 4.673 4.673 0 001.366-3.503 4.673 4.673 0 003.503-1.366 4.657 4.657 0 001.368-3.503c.063.002.125.004.187.004 1.2 0 2.4-.457 3.314-1.37a4.656 4.656 0 001.368-3.503 4.672 4.672 0 003.5-1.366 4.693 4.693 0 00.312-6.284l8.255-8.256a2.184 2.184 0 011.555-.644c.588 0 1.14.228 1.555.644.416.415.645.968.645 1.555s-.23 1.14-.645 1.555l-1.217 1.217-4.416 4.417a1.244 1.244 0 001.758 1.758l4.417-4.416a2.202 2.202 0 013.11 0 2.202 2.202 0 010 3.11l-1.217 1.218-3.2 3.199a1.244 1.244 0 001.76 1.759l3.198-3.2a2.184 2.184 0 011.555-.644c.588 0 1.14.229 1.556.645.415.415.644.967.644 1.555 0 .587-.23 1.14-.645 1.555l-1.67 1.67-1.529 1.529a1.244 1.244 0 001.759 1.759l1.53-1.53a2.202 2.202 0 013.108.001 2.202 2.202 0 010 3.11L44.805 39.218a16.848 16.848 0 01-11.337 4.939 1.244 1.244 0 00-.836.365L21.487 55.707a1.244 1.244 0 101.762 1.756l8.197-8.228a11.56 11.56 0 007.021 1.806l6.416 6.416a1.24 1.24 0 001.758 0 1.244 1.244 0 000-1.758l-6.82-6.823a1.244 1.244 0 00-.982-.36l-.394.032a9.078 9.078 0 01-5.19-1.13l.8-.801a19.324 19.324 0 0012.51-5.642zm-28.238-8.257a2.184 2.184 0 01-1.555.644c-.588 0-1.14-.229-1.555-.644l-3.36-3.36a2.202 2.202 0 011.554-3.755c.588 0 1.14.229 1.555.644l3.36 3.36a2.202 2.202 0 010 3.11zm4.869-4.87a2.202 2.202 0 01-3.11 0l-3.36-3.36-1.672-1.67a2.202 2.202 0 011.555-3.755c.588 0 1.14.229 1.555.644l5.031 5.031c.416.416.645.968.645 1.556 0 .587-.229 1.14-.644 1.555zm4.869-4.868a2.202 2.202 0 01-3.11 0l-6.25-6.249a2.184 2.184 0 01-.643-1.555c0-.587.228-1.14.644-1.555a2.193 2.193 0 011.555-.643c.563 0 1.125.214 1.554.642l2.848 2.848 3.401 3.402c.416.415.645.967.645 1.555 0 .587-.229 1.14-.644 1.555zm4.869-4.87a2.202 2.202 0 01-3.11 0l-6.25-6.248-.001-.002-1.215-1.215a2.202 2.202 0 010-3.11 2.192 2.192 0 011.555-.643c.563 0 1.126.214 1.555.643L32.933 15c.416.416.645.968.645 1.555 0 .588-.229 1.14-.644 1.556zm.327-6.3l-3.416-3.416a5.67 5.67 0 001.19.127h.028l3.413-.016a1.244 1.244 0 00-.006-2.488h-.006l-3.412.016h-.016c-.84 0-1.632-.326-2.228-.92a3.138 3.138 0 01-.93-2.239v-.387H36.4c1.6 0 3.144.672 4.235 1.844l.05.055-7.424 7.424z" fill="#7DA541"/></svg>