<svg width="60" height="56" fill="none" xmlns="http://www.w3.org/2000/svg"><path d="M36.666 14.459a1.168 1.168 0 001.658 0c.457-.458.457-1.2 0-1.657l-.016-.016a1.172 1.172 0 00-1.657 1.657l.015.016z" fill="#7DA541"/><path d="M55.572 25.547l4.085-4.085a1.172 1.172 0 00-.83-2h-8.466a25.455 25.455 0 00-6.75-11.98C38.786 2.658 32.371 0 25.547 0S12.307 2.657 7.483 7.483C2.657 12.308 0 18.723 0 25.547s2.657 13.24 7.483 18.064a25.732 25.732 0 004.696 3.715l-3.53 6.237a1.172 1.172 0 001.019 1.75h6.035c.422 0 .812-.228 1.02-.595l2.496-4.41c2.043.518 4.165.786 6.328.786 2.163 0 4.284-.268 6.327-.787l2.497 4.41a1.17 1.17 0 001.02.595h6.035a1.172 1.172 0 001.02-1.749l-3.53-6.237a25.735 25.735 0 004.695-3.715 25.46 25.46 0 006.75-11.979h8.467a1.172 1.172 0 00.829-2l-4.085-4.085zm-2.143-1.172h-8.178l2.57-2.57h8.178l-2.57 2.57zM15.02 52.969h-3.341l2.55-4.507a25.2 25.2 0 002.694 1.146l-1.902 3.36zm24.397 0h-3.342l-1.902-3.361a25.2 25.2 0 002.693-1.145l2.55 4.506zm2.538-11.015a23.307 23.307 0 01-5.138 3.886l-.07.034-.04.026a22.898 22.898 0 01-4.493 1.882 1.08 1.08 0 00-.182.053c-2.08.602-4.258.915-6.484.915s-4.404-.313-6.484-.915a1.214 1.214 0 00-.182-.053 22.896 22.896 0 01-4.493-1.881l-.041-.026c-.023-.013-.046-.024-.069-.035a23.304 23.304 0 01-5.138-3.886 23.05 23.05 0 01-6.796-16.407A23.051 23.051 0 019.14 9.14a23.051 23.051 0 0116.407-6.796A23.051 23.051 0 0141.954 9.14a23.122 23.122 0 015.988 10.322h-.607c-.31 0-.609.123-.828.343l-3.11 3.11a18.054 18.054 0 00-2.044-6.086 1.172 1.172 0 00-2.051 1.133 15.56 15.56 0 011.892 6.413h-5.166a10.466 10.466 0 00-3.023-6.286A10.478 10.478 0 0025.547 15a10.478 10.478 0 00-7.458 3.089A10.478 10.478 0 0015 25.547c0 2.817 1.097 5.466 3.089 7.457a10.478 10.478 0 007.458 3.09c2.817 0 5.466-1.097 7.457-3.09a10.466 10.466 0 003.023-6.285h5.162c-.28 3.663-1.825 7.218-4.538 9.932a15.6 15.6 0 01-11.104 4.599 15.6 15.6 0 01-11.104-4.6 15.6 15.6 0 01-4.6-11.103 15.6 15.6 0 014.6-11.104c4.92-4.92 12.605-6.01 18.689-2.65a1.172 1.172 0 001.133-2.053 18.177 18.177 0 00-11.13-2.079 17.883 17.883 0 00-10.35 5.125A17.929 17.929 0 007.5 25.546a17.93 17.93 0 005.286 12.762 17.929 17.929 0 0012.76 5.286 17.93 17.93 0 0012.762-5.286A17.877 17.877 0 0043.4 28.183l3.106 3.106c.22.22.518.343.829.343h.607a23.128 23.128 0 01-5.988 10.322zm-12.58-18.617a1.172 1.172 0 00-1.6-.429l-2.813 1.624a1.172 1.172 0 000 2.03l2.812 1.623a1.171 1.171 0 001.666-1.467h4.227a8.14 8.14 0 01-2.319 4.63 8.15 8.15 0 01-5.8 2.402 8.15 8.15 0 01-5.8-2.403 8.15 8.15 0 01-2.403-5.8 8.15 8.15 0 012.402-5.8 8.15 8.15 0 015.8-2.403 8.15 8.15 0 015.801 2.402 8.14 8.14 0 012.32 4.629H29.44a1.169 1.169 0 00-.065-1.038zm18.446 5.951l-2.569-2.57h8.178l2.57 2.57h-8.18z" fill="#7DA541"/></svg>