<svg width="60" height="61" fill="none" xmlns="http://www.w3.org/2000/svg"><path d="M54.487 12.702a29.216 29.216 0 00-1.44-1.88C47.54 4.215 39.253 0 30.001 0l-.046.001L29.928 0c-.033 0-.068.004-.103.004-9.183.053-17.397 4.255-22.872 10.819a30.514 30.514 0 00-1.44 1.88A29.826 29.826 0 000 30a29.817 29.817 0 005.513 17.298 30.25 30.25 0 001.44 1.88c5.474 6.563 13.688 10.766 22.872 10.819.035 0 .07.003.103.003l.026-.001.045.001c9.254 0 17.54-4.213 23.048-10.821a30.27 30.27 0 001.44-1.881A29.827 29.827 0 0060 29.999a29.828 29.828 0 00-5.513-17.297zm-33.256-8.8c-2.757 2.66-5.05 6.548-6.628 11.214-2.116-.79-4.02-1.742-5.662-2.817a27.613 27.613 0 0112.29-8.397zM7.496 14.18c1.866 1.245 4.022 2.335 6.406 3.232-1.029 3.759-1.62 7.931-1.642 12.334H2.467c.053-5.791 1.917-11.15 5.029-15.566zM2.559 32.209h9.75c.158 3.685.718 7.182 1.59 10.38-2.384.898-4.54 1.987-6.403 3.234-2.758-3.915-4.537-8.57-4.937-13.614zm6.39 15.489c1.641-1.074 3.54-2.023 5.651-2.813 1.58 4.668 3.873 8.553 6.63 11.213-4.838-1.628-9.062-4.578-12.282-8.4zm19.82 9.753c-5.05-.692-9.41-5.872-11.882-13.334 3.564-1.068 7.597-1.716 11.883-1.82V57.45zm0-17.614c-4.519.109-8.779.807-12.572 1.971-.777-2.949-1.274-6.185-1.423-9.598H28.77v7.627zm0-10.09H14.723c.022-4.134.56-8.04 1.486-11.55 3.788 1.16 8.046 1.86 12.56 1.967v9.583h.002zm0-12.043c-4.283-.104-8.315-.75-11.874-1.818C19.365 8.43 23.72 3.243 28.77 2.55v15.154zm28.762 12.043h-9.935c-.023-4.384-.606-8.54-1.628-12.285 2.437-.906 4.64-2.012 6.536-3.28 3.11 4.416 4.974 9.774 5.027 15.565zm-6.474-17.446c-1.675 1.097-3.623 2.063-5.789 2.862-1.594-4.73-3.919-8.665-6.72-11.335 4.93 1.614 9.24 4.591 12.509 8.473zM31.23 2.57c4.996.772 9.3 5.947 11.744 13.354-3.526 1.045-7.513 1.678-11.744 1.781V2.57zm0 17.596c4.462-.106 8.672-.79 12.427-1.926.92 3.5 1.455 7.39 1.476 11.51H31.232v-9.584zm0 12.044h13.852c-.148 3.397-.643 6.618-1.413 9.558-3.76-1.14-7.974-1.822-12.436-1.93l-.003-7.628zm0 25.223V42.298c4.233.103 8.22.736 11.751 1.781-2.448 7.41-6.756 12.582-11.75 13.353zm7.318-1.258c2.8-2.668 5.13-6.6 6.724-11.332 2.161.798 4.106 1.763 5.779 2.857-3.27 3.88-7.575 6.86-12.503 8.476zm13.955-10.35c-1.897-1.269-4.099-2.378-6.537-3.282a47.27 47.27 0 001.576-10.332h9.897a27.311 27.311 0 01-4.936 13.613z" fill="#7DA541"/></svg>